<svg width="19" height="18" viewBox="0 0 19 18" fill="none" xmlns="http://www.w3.org/2000/svg">
<path fill-rule="evenodd" clip-rule="evenodd" d="M2.23443 12.25L4.7226 11.96C5.32015 11.89 5.90791 12.1 6.32913 12.53L8.13158 14.37C10.9038 12.93 13.1765 10.62 14.5871 7.78L12.7748 5.93C12.3536 5.5 12.1479 4.9 12.2165 4.29L12.5006 1.77C12.6181 0.76 13.4508 0 14.4499 0H16.1446C17.2516 0 18.1724 0.94 18.1038 2.07C17.5846 10.61 10.894 17.43 2.53811 17.96C1.43117 18.03 0.510355 17.09 0.510355 15.96V14.23C0.500559 13.22 1.24505 12.37 2.23443 12.25Z" fill="white"/>
</svg>
