<svg width="20" height="20" viewBox="0 0 20 20" fill="none" xmlns="http://www.w3.org/2000/svg">
<path fill-rule="evenodd" clip-rule="evenodd" d="M18.0203 0H2.34688C1.26933 0 0.397491 0.9 0.397491 2L0.387695 20L4.30606 15H18.0203C19.0979 15 19.9795 14.1 19.9795 13V2C19.9795 0.9 19.0979 0 18.0203 0ZM11.1632 11H5.28565C4.74688 11 4.30606 10.55 4.30606 10C4.30606 9.45 4.74688 9 5.28565 9H11.1632C11.702 9 12.1428 9.45 12.1428 10C12.1428 10.55 11.702 11 11.1632 11ZM15.0816 6H5.28565C4.74688 6 4.30606 5.55 4.30606 5C4.30606 4.45 4.74688 4 5.28565 4H15.0816C15.6203 4 16.0612 4.45 16.0612 5C16.0612 5.55 15.6203 6 15.0816 6Z" fill="white"/>
</svg>
